<svg width="900" height="300" viewBox="0 0 900 300" fill="none" xmlns="http://www.w3.org/2000/svg">
<rect x="3" y="3" width="894" height="294" rx="41" fill="black"/>
<path d="M199.219 185.577L215.491 189.642C222.858 191.482 230 185.939 230 178.381L230 99.9869C230 93.3327 225.452 87.5309 218.966 85.9107L172.315 74.2569C164.948 72.4166 157.806 77.9598 157.806 85.5178V99.6499L128.412 92.3071C121.045 90.4669 113.903 96.01 113.903 103.568V117.7L84.5081 110.357C77.1413 108.517 69.9995 114.06 69.9995 121.618L69.9995 200.012C69.9995 206.666 74.5472 212.468 81.033 214.088L127.685 225.742C135.052 227.582 142.193 222.039 142.193 214.481L142.206 136.192C142.206 129.579 138.019 125.754 136.501 124.579C136.211 124.355 136.131 123.937 136.339 123.635C136.543 123.338 136.912 123.198 137.257 123.302C143.403 125.158 149.285 131.46 149.872 139.384L151.902 199.253C151.969 201.219 153.24 202.924 155.07 203.566L171.589 207.692C178.955 209.533 186.097 203.989 186.097 196.431L186.109 118.16C186.109 111.546 181.932 107.712 180.414 106.537C180.124 106.313 180.044 105.895 180.252 105.593C180.456 105.296 180.825 105.156 181.17 105.26C187.316 107.116 193.198 113.418 193.785 121.342L195.815 181.207C195.884 183.253 197.265 185.013 199.219 185.577Z" fill="white"/>
<path d="M391.275 245H374.515L347.921 207.879H333.932V245H319.665V147.351H354.016C360.664 147.351 366.62 148.644 371.883 151.229C377.147 153.815 381.21 157.416 384.072 162.033C387.027 166.558 388.504 171.775 388.504 177.684C388.504 185.072 386.242 191.397 381.717 196.66C377.193 201.831 371.145 205.248 363.573 206.91L391.275 245ZM333.932 160.509V194.86H354.016C359.925 194.86 364.681 193.29 368.282 190.15C371.976 186.918 373.822 182.763 373.822 177.684C373.822 172.606 371.976 168.497 368.282 165.357C364.681 162.125 359.925 160.509 354.016 160.509H333.932ZM429.13 246.385C424.051 246.385 419.48 245.139 415.417 242.645C411.354 240.06 408.169 236.551 405.86 232.119C403.552 227.594 402.398 222.515 402.398 216.883V173.391H415.971V215.775C415.971 221.223 417.495 225.655 420.542 229.071C423.589 232.488 427.514 234.196 432.316 234.196C437.302 234.196 441.457 232.442 444.781 228.933C448.106 225.424 449.768 221.038 449.768 215.775V173.391H463.342V245H453.646L450.46 234.196C448.152 238.075 445.105 241.076 441.319 243.199C437.625 245.323 433.562 246.385 429.13 246.385ZM513.944 246.385C504.987 246.385 497.184 244.077 490.536 239.46C483.98 234.75 479.501 228.379 477.101 220.345L490.813 218.129C493.491 223.3 496.677 227.132 500.37 229.625C504.064 232.026 508.588 233.227 513.944 233.227C519.392 233.227 523.824 232.026 527.241 229.625C530.658 227.132 532.366 223.762 532.366 219.514C532.366 216.375 531.396 213.743 529.457 211.619C527.61 209.495 525.256 207.787 522.393 206.494C519.531 205.202 515.791 203.77 511.174 202.201C504.987 200.169 499.909 198.138 495.938 196.106C491.967 194.075 488.597 191.212 485.827 187.519C483.149 183.733 481.81 178.931 481.81 173.114C481.81 167.666 483.149 162.91 485.827 158.847C488.597 154.692 492.383 151.506 497.184 149.29C501.986 147.074 507.342 145.966 513.252 145.966C521.47 145.966 528.534 148.136 534.444 152.476C540.353 156.723 544.555 162.587 547.048 170.066L533.612 172.283C531.766 168.035 529.134 164.803 525.717 162.587C522.301 160.278 518.284 159.124 513.667 159.124C508.681 159.124 504.572 160.325 501.34 162.725C498.108 165.034 496.492 168.22 496.492 172.283C496.492 175.33 497.415 177.915 499.262 180.039C501.201 182.163 503.556 183.871 506.326 185.164C509.189 186.457 512.975 187.934 517.684 189.596C523.686 191.628 528.672 193.705 532.643 195.829C536.706 197.861 540.122 200.769 542.893 204.555C545.663 208.341 547.048 213.097 547.048 218.822C547.048 224.362 545.57 229.21 542.616 233.365C539.753 237.52 535.782 240.752 530.704 243.061C525.717 245.277 520.131 246.385 513.944 246.385ZM604.385 233.088L603.139 245H590.534C583.055 245 577.376 243.153 573.498 239.46C569.619 235.766 567.68 230.457 567.68 223.531V185.441H555.353V173.391H567.68L571.42 152.614H581.254V173.391H603.139V185.441H581.254V223.531C581.254 229.902 584.348 233.088 590.534 233.088H604.385ZM649.652 246.385C642.357 246.385 635.847 244.815 630.122 241.676C624.397 238.536 619.919 234.15 616.687 228.517C613.455 222.885 611.839 216.467 611.839 209.265C611.839 202.062 613.455 195.644 616.687 190.012C619.919 184.379 624.397 179.993 630.122 176.853C635.847 173.621 642.357 172.006 649.652 172.006C656.947 172.006 663.457 173.621 669.182 176.853C674.907 179.993 679.385 184.379 682.617 190.012C685.849 195.644 687.465 202.062 687.465 209.265C687.465 216.467 685.849 222.885 682.617 228.517C679.385 234.15 674.907 238.536 669.182 241.676C663.457 244.815 656.947 246.385 649.652 246.385ZM649.652 233.919C656.67 233.919 662.349 231.657 666.689 227.132C671.121 222.608 673.337 216.652 673.337 209.265C673.337 201.877 671.121 195.921 666.689 191.397C662.349 186.78 656.67 184.471 649.652 184.471C642.634 184.471 636.955 186.78 632.615 191.397C628.275 195.921 626.105 201.877 626.105 209.265C626.105 216.559 628.275 222.515 632.615 227.132C636.955 231.657 642.634 233.919 649.652 233.919ZM702.021 245V173.391H711.856L714.764 183.64C716.888 180.039 719.52 177.454 722.659 175.884C725.799 174.222 729.539 173.391 733.879 173.391H737.203L738.311 186.411H730.554C725.568 186.411 721.828 187.842 719.335 190.704C716.842 193.567 715.595 197.445 715.595 202.339V245H702.021ZM815.913 208.711C815.913 210.557 815.867 211.989 815.775 213.004H756.631C757.37 219.376 759.863 224.454 764.11 228.24C768.358 232.026 773.76 233.919 780.316 233.919C784.841 233.919 788.858 233.042 792.366 231.288C795.968 229.441 798.692 227.04 800.538 224.085L813.281 226.163C810.511 232.626 806.033 237.613 799.846 241.122C793.752 244.631 786.965 246.385 779.485 246.385C772.375 246.385 766.003 244.815 760.371 241.676C754.738 238.444 750.352 234.012 747.212 228.379C744.073 222.746 742.503 216.375 742.503 209.265C742.503 202.062 744.073 195.644 747.212 190.012C750.352 184.379 754.692 179.993 760.232 176.853C765.773 173.621 772.098 172.006 779.208 172.006C786.226 172.006 792.505 173.621 798.045 176.853C803.678 179.993 808.064 184.379 811.204 190.012C814.343 195.552 815.913 201.785 815.913 208.711ZM779.208 184.056C773.76 184.056 769.051 185.672 765.08 188.904C761.202 192.136 758.616 196.476 757.324 201.924H801.092C799.892 196.568 797.307 192.274 793.336 189.042C789.458 185.718 784.748 184.056 779.208 184.056Z" fill="white"/>
<path d="M319.453 118.509V100.858H320.616C322.125 100.858 323.332 100.491 324.237 99.7583C325.142 99.0256 325.897 97.56 326.5 95.3616C327.147 93.1202 327.643 89.8226 327.987 85.469L329.862 61.4164H358.57V100.858H365.23V118.509H358.57V107H326.112V118.509H319.453ZM351.911 100.858V67.5588H336.005L334.647 85.7923C334.13 93.0771 332.794 98.0988 330.638 100.858H351.911ZM386.401 107.647C382.995 107.647 379.956 106.914 377.284 105.448C374.611 103.983 372.521 101.935 371.012 99.3057C369.503 96.6763 368.749 93.6805 368.749 90.3183C368.749 86.9561 369.503 83.9603 371.012 81.3309C372.521 78.7015 374.611 76.654 377.284 75.1884C379.956 73.6798 382.995 72.9254 386.401 72.9254C389.806 72.9254 392.845 73.6798 395.517 75.1884C398.19 76.654 400.28 78.7015 401.789 81.3309C403.298 83.9603 404.052 86.9561 404.052 90.3183C404.052 93.6805 403.298 96.6763 401.789 99.3057C400.28 101.935 398.19 103.983 395.517 105.448C392.845 106.914 389.806 107.647 386.401 107.647ZM386.401 101.827C389.677 101.827 392.327 100.771 394.353 98.6592C396.422 96.547 397.457 93.7667 397.457 90.3183C397.457 86.8699 396.422 84.0896 394.353 81.9775C392.327 79.8222 389.677 78.7446 386.401 78.7446C383.125 78.7446 380.474 79.8222 378.448 81.9775C376.422 84.0896 375.409 86.8699 375.409 90.3183C375.409 93.7236 376.422 96.5039 378.448 98.6592C380.474 100.771 383.125 101.827 386.401 101.827ZM426.236 107.647C422.917 107.647 419.921 106.914 417.248 105.448C414.619 103.94 412.571 101.87 411.106 99.2411C409.64 96.6117 408.907 93.6374 408.907 90.3183C408.907 86.9561 409.64 83.9603 411.106 81.3309C412.571 78.7015 414.619 76.654 417.248 75.1884C419.878 73.6798 422.873 72.9254 426.236 72.9254C429.813 72.9254 433.003 73.7875 435.805 75.5117C438.65 77.2359 440.676 79.7145 441.883 82.9474L435.934 83.9172C435.158 82.3654 433.93 81.1154 432.249 80.1671C430.611 79.2188 428.736 78.7446 426.624 78.7446C423.348 78.7446 420.675 79.8222 418.606 81.9775C416.58 84.1328 415.567 86.913 415.567 90.3183C415.567 93.7236 416.58 96.5039 418.606 98.6592C420.675 100.771 423.348 101.827 426.624 101.827C428.822 101.827 430.762 101.332 432.443 100.34C434.167 99.3488 435.417 98.0341 436.193 96.3961L442.141 97.366C440.935 100.642 438.865 103.185 435.934 104.996C433.046 106.763 429.813 107.647 426.236 107.647ZM461.705 107H455.368V79.3912H443.795V73.572H473.279V79.3912H461.705V107ZM503.214 73.572H509.744L495.778 112.043C494.743 114.931 493.386 117.022 491.705 118.315C490.023 119.608 487.782 120.255 484.98 120.255H480.002L479.42 114.436H485.368C486.618 114.436 487.588 114.155 488.278 113.595C488.967 113.078 489.549 112.151 490.023 110.815L490.735 108.875L475.863 73.572H482.652L493.256 99.3704H494.162L503.214 73.572ZM521.81 107H515.474V73.572H543.923V107H537.587V79.3912H521.81V107ZM575.101 87.2148V73.572H581.437V107H575.101V93.034H559.001V107H552.665V73.572H559.001V87.2148H575.101ZM605.883 107.647C602.478 107.647 599.439 106.914 596.766 105.448C594.094 103.983 592.003 101.935 590.494 99.3057C588.986 96.6763 588.231 93.6805 588.231 90.3183C588.231 86.9561 588.986 83.9603 590.494 81.3309C592.003 78.7015 594.094 76.654 596.766 75.1884C599.439 73.6798 602.478 72.9254 605.883 72.9254C609.288 72.9254 612.327 73.6798 615 75.1884C617.672 76.654 619.763 78.7015 621.271 81.3309C622.78 83.9603 623.534 86.9561 623.534 90.3183C623.534 93.6805 622.78 96.6763 621.271 99.3057C619.763 101.935 617.672 103.983 615 105.448C612.327 106.914 609.288 107.647 605.883 107.647ZM605.883 101.827C609.159 101.827 611.81 100.771 613.836 98.6592C615.905 96.547 616.939 93.7667 616.939 90.3183C616.939 86.8699 615.905 84.0896 613.836 81.9775C611.81 79.8222 609.159 78.7446 605.883 78.7446C602.607 78.7446 599.956 79.8222 597.93 81.9775C595.904 84.0896 594.891 86.8699 594.891 90.3183C594.891 93.7236 595.904 96.5039 597.93 98.6592C599.956 100.771 602.607 101.827 605.883 101.827ZM668.04 89.4778C669.764 90.1244 671.144 91.1804 672.178 92.646C673.256 94.0685 673.795 95.7496 673.795 97.6893C673.795 99.4566 673.277 101.051 672.243 102.474C671.251 103.896 669.851 105.017 668.04 105.836C666.23 106.612 664.161 107 661.833 107H645.863V73.572H661.251C663.449 73.572 665.411 73.9599 667.135 74.7358C668.859 75.5117 670.195 76.5678 671.144 77.9041C672.135 79.2403 672.631 80.7706 672.631 82.4948C672.631 84.1328 672.221 85.5552 671.402 86.7622C670.626 87.926 669.506 88.8312 668.04 89.4778ZM652.199 78.9386V87.1501H661.251C662.717 87.1501 663.924 86.7837 664.872 86.0509C665.82 85.275 666.294 84.2836 666.294 83.0767C666.294 81.8697 665.82 80.8783 664.872 80.1024C663.924 79.3265 662.717 78.9386 661.251 78.9386H652.199ZM661.833 101.633C663.514 101.633 664.872 101.202 665.906 100.34C666.941 99.4782 667.458 98.3574 667.458 96.9781C667.458 95.5987 666.941 94.478 665.906 93.6159C664.872 92.7538 663.514 92.3227 661.833 92.3227H652.199V101.633H661.833Z" fill="white"/>
<rect x="3" y="3" width="894" height="294" rx="41" stroke="#ABABAB" stroke-width="6"/>
</svg>
